<?xml version="1.0" encoding="UTF-8" standalone="no" ?>
<!DOCTYPE svg PUBLIC "-//W3C//DTD SVG 1.1//EN" "http://www.w3.org/Graphics/SVG/1.1/DTD/svg11.dtd">
<svg xmlns="http://www.w3.org/2000/svg" xmlns:xlink="http://www.w3.org/1999/xlink" version="1.1" width="840" height="247" viewBox="-20 -12.5 840 260" xml:space="preserve">
<desc>Created with Fabric.js 5.2.4</desc>
<defs>
</defs>
<rect x="0" y="0" width="100%" height="100%" fill="transparent"></rect>
<g transform="matrix(1 0 0 1 420 130)" id="970cb4b8-3c61-4a6a-b779-8f1794f6a101"  >
<rect style="stroke: none; stroke-width: 1; stroke-dasharray: none; stroke-linecap: butt; stroke-dashoffset: 0; stroke-linejoin: miter; stroke-miterlimit: 4; fill: rgb(255,102,0); fill-rule: nonzero; opacity: 1;" vector-effect="non-scaling-stroke"  x="-420" y="-130" rx="0" ry="0" width="840" height="260" />
</g>
<g transform="matrix(Infinity NaN NaN Infinity 0 0)" id="aa13233c-b645-4df7-af84-a8582830d7a3"  >
</g>
<g transform="matrix(1.51 0 0 1.51 407 126)"  >
<g style="" vector-effect="non-scaling-stroke"   >
		<g transform="matrix(1 0 0 1 -46.95 4.5)"  >
<path style="stroke: none; stroke-width: 1; stroke-dasharray: none; stroke-linecap: butt; stroke-dashoffset: 0; stroke-linejoin: miter; stroke-miterlimit: 4; fill: rgb(255,255,255); fill-rule: nonzero; opacity: 1;" vector-effect="non-scaling-stroke"  transform=" translate(-127.25, -397.5)" d="M 168.6 396.4 C 168.6 381.2 156.29999999999998 378.4 143.5 378.4 C 137.4 378.4 131.2 379.4 126.4 382.09999999999997 C 124.10000000000001 383.4 122.2 385.2 120.7 387.49999999999994 L 120.7 379.99999999999994 L 110.10000000000001 379.99999999999994 L 110.10000000000001 377.59999999999997 C 110.10000000000001 372.7 112.60000000000001 372.2 116.60000000000001 372.2 C 118.2 372.2 119.7 372.3 121.4 372.5 L 121.4 360 C 118.60000000000001 359.9 115.7 359.7 112.9 359.7 C 97.9 359.7 92.5 364.5 92.5 379.9 L 84 379.9 L 84 391.29999999999995 L 92.5 391.29999999999995 L 92.5 433.69999999999993 L 110.1 433.69999999999993 L 110.1 391.29999999999995 L 118.89999999999999 391.29999999999995 C 118.39999999999999 392.9 118.1 394.59999999999997 117.99999999999999 396.49999999999994 L 134.5 396.49999999999994 C 135.3 391.8999999999999 138.4 389.79999999999995 143.3 389.79999999999995 C 146.9 389.79999999999995 151.8 391.4 151.8 395.4 C 151.8 398.7 150.10000000000002 399.7 147.10000000000002 400.4 C 134.90000000000003 402.9 115.80000000000003 401.5 115.80000000000003 419 C 115.80000000000003 430.1 123.90000000000002 435.3 134.10000000000002 435.3 C 140.50000000000003 435.3 147.3 433.40000000000003 151.8 428.7 C 152 430.5 152.20000000000002 432.09999999999997 152.8 433.8 L 170.5 433.8 C 168.4 429.6 168.4 424.6 168.4 420 L 168.4 396.4 z M 140.9 424.4 C 137 424.4 133.5 422.59999999999997 133.5 418.29999999999995 C 133.5 414.09999999999997 136.8 412.4 140.7 411.49999999999994 C 144.5 410.49999999999994 149.1 410.19999999999993 151.6 408.59999999999997 C 152 419.6 149.2 424.4 140.9 424.4 z" stroke-linecap="round" />
</g>
		<g transform="matrix(1 0 0 1 22.7 13.9)"  >
<path style="stroke: none; stroke-width: 1; stroke-dasharray: none; stroke-linecap: butt; stroke-dashoffset: 0; stroke-linejoin: miter; stroke-miterlimit: 4; fill: rgb(255,255,255); fill-rule: nonzero; opacity: 1;" vector-effect="non-scaling-stroke"  transform=" translate(-196.9, -406.9)" d="M 197.4 421.8 C 189.9 421.8 186.9 414.7 186.9 407.7 C 186.9 400.2 188.5 391.9 198.3 391.9 C 202.8 391.9 206.8 395.09999999999997 206.9 399.7 L 224 399.7 C 222.8 385.5 210.8 378.5 197.5 378.5 C 180.2 378.5 169.3 390.7 169.3 407.8 C 169.3 424.3 181.3 435.3 197.5 435.3 C 211.8 435.3 223 427 224.5 412.6 L 207.4 412.6 C 206.6 418.2 203.5 421.8 197.4 421.8 z" stroke-linecap="round" />
</g>
		<g transform="matrix(1 0 0 1 60.3 -26.55)"  >
<rect style="stroke: none; stroke-width: 1; stroke-dasharray: none; stroke-linecap: butt; stroke-dashoffset: 0; stroke-linejoin: miter; stroke-miterlimit: 4; fill: rgb(255,255,255); fill-rule: nonzero; opacity: 1;" vector-effect="non-scaling-stroke"  x="-8.8" y="-6.75" rx="0" ry="0" width="17.6" height="13.5" />
</g>
		<g transform="matrix(1 0 0 1 60.3 13.75)"  >
<rect style="stroke: none; stroke-width: 1; stroke-dasharray: none; stroke-linecap: butt; stroke-dashoffset: 0; stroke-linejoin: miter; stroke-miterlimit: 4; fill: rgb(255,255,255); fill-rule: nonzero; opacity: 1;" vector-effect="non-scaling-stroke"  x="-8.8" y="-26.85" rx="0" ry="0" width="17.6" height="53.7" />
</g>
		<g transform="matrix(1 0 0 1 82.6 3.65)"  >
<rect style="stroke: none; stroke-width: 1; stroke-dasharray: none; stroke-linecap: butt; stroke-dashoffset: 0; stroke-linejoin: miter; stroke-miterlimit: 4; fill: rgb(255,255,255); fill-rule: nonzero; opacity: 1;" vector-effect="non-scaling-stroke"  x="-8.8" y="-36.95" rx="0" ry="0" width="17.6" height="73.9" />
</g>
		<g transform="matrix(1 0 0 1 121.57 13.85)"  >
<path style="stroke: none; stroke-width: 1; stroke-dasharray: none; stroke-linecap: butt; stroke-dashoffset: 0; stroke-linejoin: miter; stroke-miterlimit: 4; fill: rgb(255,255,255); fill-rule: nonzero; opacity: 1;" vector-effect="non-scaling-stroke"  transform=" translate(-295.77, -406.85)" d="M 296.2 378.4 C 280.4 378.4 267.2 390.2 267.2 406.7 C 267.2 424.7 279.09999999999997 435.3 296.59999999999997 435.3 C 308.59999999999997 435.3 320.09999999999997 429.90000000000003 323.29999999999995 417.5 L 306.79999999999995 417.5 C 305.09999999999997 421.4 300.99999999999994 423.4 296.79999999999995 423.4 C 289.29999999999995 423.4 285.09999999999997 418.5 284.79999999999995 411.2 L 324.29999999999995 411.2 C 325.1 392.9 315.5 378.4 296.2 378.4 z M 284.8 401.3 C 285.8 394.8 290 390.3 296.2 390.3 C 302.09999999999997 390.3 306.3 395.3 306.7 401.3 L 284.8 401.3 z" stroke-linecap="round" />
</g>
		<g transform="matrix(1 0 0 1 161.05 31.05)"  >
<rect style="stroke: none; stroke-width: 1; stroke-dasharray: none; stroke-linecap: butt; stroke-dashoffset: 0; stroke-linejoin: miter; stroke-miterlimit: 4; fill: rgb(255,255,255); fill-rule: nonzero; opacity: 1;" vector-effect="non-scaling-stroke"  x="-9.65" y="-9.65" rx="0" ry="0" width="19.3" height="19.3" />
</g>
		<g transform="matrix(1 0 0 1 184.4 -26.55)"  >
<rect style="stroke: none; stroke-width: 1; stroke-dasharray: none; stroke-linecap: butt; stroke-dashoffset: 0; stroke-linejoin: miter; stroke-miterlimit: 4; fill: rgb(255,255,255); fill-rule: nonzero; opacity: 1;" vector-effect="non-scaling-stroke"  x="-8.8" y="-6.75" rx="0" ry="0" width="17.6" height="13.5" />
</g>
		<g transform="matrix(1 0 0 1 202.7 5.8)"  >
<path style="stroke: none; stroke-width: 1; stroke-dasharray: none; stroke-linecap: butt; stroke-dashoffset: 0; stroke-linejoin: miter; stroke-miterlimit: 4; fill: rgb(255,255,255); fill-rule: nonzero; opacity: 1;" vector-effect="non-scaling-stroke"  transform=" translate(-376.9, -398.8)" d="M 404 391.3 L 404 379.90000000000003 L 393.1 379.90000000000003 L 393.1 363.6 L 375.5 363.6 L 375.5 379.90000000000003 L 367.4 379.90000000000003 L 366.59999999999997 379.90000000000003 L 349.79999999999995 379.90000000000003 L 349.79999999999995 433.6 L 367.4 433.6 L 367.4 391.20000000000005 L 375.5 391.20000000000005 L 375.5 415.1 C 375.5 429.70000000000005 379.3 434 394.3 434 C 397.5 434 400.7 433.6 403.90000000000003 433.5 L 403.90000000000003 420.6 C 402.3 420.6 400.8 420.8 399.3 420.8 C 395.5 420.8 393 419.90000000000003 393 415.6 L 393 391.20000000000005 L 404 391.20000000000005 z" stroke-linecap="round" />
</g>
		<g transform="matrix(1 0 0 1 -158.9 0)"  >
<path style="stroke: none; stroke-width: 1; stroke-dasharray: none; stroke-linecap: butt; stroke-dashoffset: 0; stroke-linejoin: miter; stroke-miterlimit: 4; fill: rgb(255,255,255); fill-rule: nonzero; opacity: 1;" vector-effect="non-scaling-stroke"  transform=" translate(-15.3, -393)" d="M 69.1 404.2 C 69.1 400.2 69.1 378.7 69.1 378.7 C 69.1 352.09999999999997 47.49999999999999 330.59999999999997 20.999999999999993 330.59999999999997 L -7.5 330.59999999999997 C -34 330.59999999999997 -55.6 352.09999999999997 -55.6 378.7 L -55.6 407.3 C -55.6 433.90000000000003 -34.1 455.40000000000003 -7.5 455.40000000000003 L 86.2 455.40000000000003 C 86.2 455.3 69.1 450.3 69.1 404.2 z M -11.1 433.9 C -19.1 433.9 -25.9 430 -30.200000000000003 423.9 C -32.800000000000004 420.09999999999997 -34.300000000000004 415.7 -34.300000000000004 410.7 L -34.300000000000004 375.3 C -34.300000000000004 367.3 -30.400000000000006 360.5 -24.300000000000004 356.2 C -20.500000000000004 353.59999999999997 -16.100000000000005 352.09999999999997 -11.100000000000005 352.09999999999997 L 24.299999999999994 352.09999999999997 L 24.299999999999994 352.09999999999997 C 32.3 352.09999999999997 39.099999999999994 355.99999999999994 43.39999999999999 362.09999999999997 C 45.99999999999999 365.9 47.49999999999999 370.29999999999995 47.49999999999999 375.29999999999995 C 47.49999999999999 375.29999999999995 47.49999999999999 401.99999999999994 47.49999999999999 406.99999999999994 C 47.49999999999999 416.8999999999999 47.99999999999999 425.79999999999995 49.099999999999994 433.99999999999994 L -11.1 433.9 z" stroke-linecap="round" />
</g>
		<g transform="matrix(1 0 0 1 -167.1 4.71)"  >
<path style="stroke: none; stroke-width: 1; stroke-dasharray: none; stroke-linecap: butt; stroke-dashoffset: 0; stroke-linejoin: miter; stroke-miterlimit: 4; fill: rgb(255,255,255); fill-rule: nonzero; opacity: 1;" vector-effect="non-scaling-stroke"  transform=" translate(-7.1, -397.71)" d="M -15.4 389.1 C -17.1 392.8 -18.8 396.40000000000003 -20.6 400.1 C -3.1000000000000014 408.40000000000003 17.299999999999997 408.40000000000003 34.8 400.1 C 33.099999999999994 396.40000000000003 31.299999999999997 392.8 29.599999999999998 389.1 C 15.4 395.8 -1.2 395.8 -15.4 389.1 z" stroke-linecap="round" />
</g>
</g>
</g>
<g transform="matrix(NaN NaN NaN NaN 0 0)"  >
<g style=""   >
</g>
</g>
<g transform="matrix(NaN NaN NaN NaN 0 0)"  >
<g style=""   >
</g>
</g>
</svg>